<mxfile host="Electron" modified="2024-06-08T15:08:13.471Z" agent="Mozilla/5.0 (X11; Linux x86_64) AppleWebKit/537.36 (KHTML, like Gecko) draw.io/24.5.1 Chrome/124.0.6367.207 Electron/30.0.6 Safari/537.36" etag="LvJGHzOUZMYN4rOs2cor" version="24.5.1" type="device">
  <diagram name="Page-1" id="4V5F0oHJdDKvkCo8Oibg">
    <mxGraphModel dx="1368" dy="838" grid="1" gridSize="10" guides="1" tooltips="1" connect="1" arrows="1" fold="1" page="1" pageScale="1" pageWidth="850" pageHeight="1100" math="0" shadow="0">
      <root>
        <mxCell id="0" />
        <mxCell id="1" parent="0" />
        <mxCell id="FTt_NVyZ7FaaPS5wceGt-1" value="" style="rounded=0;whiteSpace=wrap;html=1;" vertex="1" parent="1">
          <mxGeometry x="140" y="170" width="240" height="70" as="geometry" />
        </mxCell>
        <mxCell id="FTt_NVyZ7FaaPS5wceGt-2" value="" style="shape=mxgraph.signs.tech.camera_1;html=1;pointerEvents=1;fillColor=#d5e8d4;strokeColor=#82b366;verticalLabelPosition=bottom;verticalAlign=top;align=center;" vertex="1" parent="1">
          <mxGeometry x="150" y="190" width="58" height="44" as="geometry" />
        </mxCell>
        <mxCell id="FTt_NVyZ7FaaPS5wceGt-3" value="" style="shape=mxgraph.signs.tech.camera_1;html=1;pointerEvents=1;fillColor=#f8cecc;strokeColor=#b85450;verticalLabelPosition=bottom;verticalAlign=top;align=center;" vertex="1" parent="1">
          <mxGeometry x="220" y="190" width="68" height="44" as="geometry" />
        </mxCell>
        <mxCell id="FTt_NVyZ7FaaPS5wceGt-4" value="" style="shape=mxgraph.signs.tech.camera_1;html=1;pointerEvents=1;fillColor=#d5e8d4;strokeColor=#82b366;verticalLabelPosition=bottom;verticalAlign=top;align=center;" vertex="1" parent="1">
          <mxGeometry x="300" y="190" width="68" height="44" as="geometry" />
        </mxCell>
        <mxCell id="FTt_NVyZ7FaaPS5wceGt-5" value="x.104" style="text;html=1;align=center;verticalAlign=middle;whiteSpace=wrap;rounded=0;" vertex="1" parent="1">
          <mxGeometry x="140" y="170" width="60" height="30" as="geometry" />
        </mxCell>
        <mxCell id="FTt_NVyZ7FaaPS5wceGt-6" value="x.115" style="text;html=1;align=center;verticalAlign=middle;whiteSpace=wrap;rounded=0;" vertex="1" parent="1">
          <mxGeometry x="220" y="170" width="60" height="30" as="geometry" />
        </mxCell>
        <mxCell id="FTt_NVyZ7FaaPS5wceGt-7" value="x.160" style="text;html=1;align=center;verticalAlign=middle;whiteSpace=wrap;rounded=0;" vertex="1" parent="1">
          <mxGeometry x="300" y="170" width="60" height="30" as="geometry" />
        </mxCell>
        <mxCell id="FTt_NVyZ7FaaPS5wceGt-8" value="" style="rounded=0;whiteSpace=wrap;html=1;" vertex="1" parent="1">
          <mxGeometry x="560" y="240" width="240" height="70" as="geometry" />
        </mxCell>
        <mxCell id="FTt_NVyZ7FaaPS5wceGt-9" value="" style="shape=mxgraph.signs.tech.camera_1;html=1;pointerEvents=1;fillColor=#d5e8d4;strokeColor=#82b366;verticalLabelPosition=bottom;verticalAlign=top;align=center;" vertex="1" parent="1">
          <mxGeometry x="570" y="260" width="58" height="44" as="geometry" />
        </mxCell>
        <mxCell id="FTt_NVyZ7FaaPS5wceGt-10" value="" style="shape=mxgraph.signs.tech.camera_1;html=1;pointerEvents=1;fillColor=#ffe6cc;strokeColor=#d79b00;verticalLabelPosition=bottom;verticalAlign=top;align=center;" vertex="1" parent="1">
          <mxGeometry x="640" y="260" width="68" height="44" as="geometry" />
        </mxCell>
        <mxCell id="FTt_NVyZ7FaaPS5wceGt-11" value="" style="shape=mxgraph.signs.tech.camera_1;html=1;pointerEvents=1;verticalLabelPosition=bottom;verticalAlign=top;align=center;fillColor=#d5e8d4;strokeColor=#82b366;" vertex="1" parent="1">
          <mxGeometry x="720" y="260" width="68" height="44" as="geometry" />
        </mxCell>
        <mxCell id="FTt_NVyZ7FaaPS5wceGt-12" value="x.104" style="text;html=1;align=center;verticalAlign=middle;whiteSpace=wrap;rounded=0;" vertex="1" parent="1">
          <mxGeometry x="560" y="240" width="60" height="30" as="geometry" />
        </mxCell>
        <mxCell id="FTt_NVyZ7FaaPS5wceGt-13" value="x.148" style="text;html=1;align=center;verticalAlign=middle;whiteSpace=wrap;rounded=0;" vertex="1" parent="1">
          <mxGeometry x="640" y="240" width="60" height="30" as="geometry" />
        </mxCell>
        <mxCell id="FTt_NVyZ7FaaPS5wceGt-14" value="x.160" style="text;html=1;align=center;verticalAlign=middle;whiteSpace=wrap;rounded=0;" vertex="1" parent="1">
          <mxGeometry x="720" y="240" width="60" height="30" as="geometry" />
        </mxCell>
        <mxCell id="FTt_NVyZ7FaaPS5wceGt-15" value="" style="rounded=0;whiteSpace=wrap;html=1;" vertex="1" parent="1">
          <mxGeometry x="130" y="400" width="310" height="70" as="geometry" />
        </mxCell>
        <mxCell id="FTt_NVyZ7FaaPS5wceGt-16" value="" style="shape=mxgraph.signs.tech.camera_1;html=1;pointerEvents=1;fillColor=#d5e8d4;strokeColor=#82b366;verticalLabelPosition=bottom;verticalAlign=top;align=center;" vertex="1" parent="1">
          <mxGeometry x="140" y="420" width="58" height="44" as="geometry" />
        </mxCell>
        <mxCell id="FTt_NVyZ7FaaPS5wceGt-17" value="" style="shape=mxgraph.signs.tech.camera_1;html=1;pointerEvents=1;fillColor=#f8cecc;strokeColor=#b85450;verticalLabelPosition=bottom;verticalAlign=top;align=center;" vertex="1" parent="1">
          <mxGeometry x="210" y="420" width="68" height="44" as="geometry" />
        </mxCell>
        <mxCell id="FTt_NVyZ7FaaPS5wceGt-18" value="" style="shape=mxgraph.signs.tech.camera_1;html=1;pointerEvents=1;fillColor=#d5e8d4;strokeColor=#82b366;verticalLabelPosition=bottom;verticalAlign=top;align=center;" vertex="1" parent="1">
          <mxGeometry x="290" y="420" width="68" height="44" as="geometry" />
        </mxCell>
        <mxCell id="FTt_NVyZ7FaaPS5wceGt-19" value="x.104" style="text;html=1;align=center;verticalAlign=middle;whiteSpace=wrap;rounded=0;" vertex="1" parent="1">
          <mxGeometry x="130" y="400" width="60" height="30" as="geometry" />
        </mxCell>
        <mxCell id="FTt_NVyZ7FaaPS5wceGt-20" value="x.115" style="text;html=1;align=center;verticalAlign=middle;whiteSpace=wrap;rounded=0;" vertex="1" parent="1">
          <mxGeometry x="210" y="400" width="60" height="30" as="geometry" />
        </mxCell>
        <mxCell id="FTt_NVyZ7FaaPS5wceGt-21" value="x.160" style="text;html=1;align=center;verticalAlign=middle;whiteSpace=wrap;rounded=0;" vertex="1" parent="1">
          <mxGeometry x="290" y="400" width="60" height="30" as="geometry" />
        </mxCell>
        <mxCell id="FTt_NVyZ7FaaPS5wceGt-22" value="" style="shape=mxgraph.signs.tech.camera_1;html=1;pointerEvents=1;fillColor=#fff2cc;strokeColor=#d6b656;verticalLabelPosition=bottom;verticalAlign=top;align=center;" vertex="1" parent="1">
          <mxGeometry x="370" y="420" width="68" height="44" as="geometry" />
        </mxCell>
        <mxCell id="FTt_NVyZ7FaaPS5wceGt-23" value="x.148" style="text;html=1;align=center;verticalAlign=middle;whiteSpace=wrap;rounded=0;" vertex="1" parent="1">
          <mxGeometry x="358" y="400" width="60" height="30" as="geometry" />
        </mxCell>
        <mxCell id="FTt_NVyZ7FaaPS5wceGt-24" value="" style="rounded=0;whiteSpace=wrap;html=1;" vertex="1" parent="1">
          <mxGeometry x="134" y="620" width="240" height="70" as="geometry" />
        </mxCell>
        <mxCell id="FTt_NVyZ7FaaPS5wceGt-25" value="" style="shape=mxgraph.signs.tech.camera_1;html=1;pointerEvents=1;fillColor=#d5e8d4;strokeColor=#82b366;verticalLabelPosition=bottom;verticalAlign=top;align=center;" vertex="1" parent="1">
          <mxGeometry x="144" y="640" width="58" height="44" as="geometry" />
        </mxCell>
        <mxCell id="FTt_NVyZ7FaaPS5wceGt-26" value="" style="shape=mxgraph.signs.tech.camera_1;html=1;pointerEvents=1;fillColor=#ffe6cc;strokeColor=#d79b00;verticalLabelPosition=bottom;verticalAlign=top;align=center;" vertex="1" parent="1">
          <mxGeometry x="214" y="640" width="68" height="44" as="geometry" />
        </mxCell>
        <mxCell id="FTt_NVyZ7FaaPS5wceGt-27" value="" style="shape=mxgraph.signs.tech.camera_1;html=1;pointerEvents=1;fillColor=#d5e8d4;strokeColor=#82b366;verticalLabelPosition=bottom;verticalAlign=top;align=center;" vertex="1" parent="1">
          <mxGeometry x="294" y="640" width="68" height="44" as="geometry" />
        </mxCell>
        <mxCell id="FTt_NVyZ7FaaPS5wceGt-28" value="x.104" style="text;html=1;align=center;verticalAlign=middle;whiteSpace=wrap;rounded=0;" vertex="1" parent="1">
          <mxGeometry x="134" y="620" width="60" height="30" as="geometry" />
        </mxCell>
        <mxCell id="FTt_NVyZ7FaaPS5wceGt-29" value="x.148" style="text;html=1;align=center;verticalAlign=middle;whiteSpace=wrap;rounded=0;" vertex="1" parent="1">
          <mxGeometry x="214" y="620" width="60" height="30" as="geometry" />
        </mxCell>
        <mxCell id="FTt_NVyZ7FaaPS5wceGt-30" value="x.160" style="text;html=1;align=center;verticalAlign=middle;whiteSpace=wrap;rounded=0;" vertex="1" parent="1">
          <mxGeometry x="294" y="620" width="60" height="20" as="geometry" />
        </mxCell>
        <mxCell id="FTt_NVyZ7FaaPS5wceGt-31" value="" style="endArrow=classic;html=1;rounded=0;exitX=1;exitY=0.5;exitDx=0;exitDy=0;entryX=0;entryY=0;entryDx=0;entryDy=0;" edge="1" parent="1" source="FTt_NVyZ7FaaPS5wceGt-1" target="FTt_NVyZ7FaaPS5wceGt-8">
          <mxGeometry width="50" height="50" relative="1" as="geometry">
            <mxPoint x="420" y="590" as="sourcePoint" />
            <mxPoint x="470" y="540" as="targetPoint" />
            <Array as="points">
              <mxPoint x="560" y="205" />
            </Array>
          </mxGeometry>
        </mxCell>
        <mxCell id="FTt_NVyZ7FaaPS5wceGt-32" value="&lt;div style=&quot;color: #cccccc;background-color: #1f1f1f;font-family: &#39;Droid Sans Mono&#39;, &#39;monospace&#39;, monospace;font-weight: normal;font-size: 14px;line-height: 19px;white-space: pre;&quot;&gt;&lt;div&gt;&lt;span style=&quot;color: #dcdcaa;&quot;&gt;get_cameras_that_are_not_in_database&lt;/span&gt;&lt;/div&gt;&lt;/div&gt;" style="endArrow=classic;html=1;rounded=0;exitX=0;exitY=1;exitDx=0;exitDy=0;entryX=1;entryY=0.25;entryDx=0;entryDy=0;" edge="1" parent="1" source="FTt_NVyZ7FaaPS5wceGt-8" target="FTt_NVyZ7FaaPS5wceGt-15">
          <mxGeometry x="-0.5102" width="50" height="50" relative="1" as="geometry">
            <mxPoint x="560" y="740" as="sourcePoint" />
            <mxPoint x="610" y="690" as="targetPoint" />
            <Array as="points">
              <mxPoint x="560" y="350" />
              <mxPoint x="560" y="418" />
            </Array>
            <mxPoint as="offset" />
          </mxGeometry>
        </mxCell>
        <mxCell id="FTt_NVyZ7FaaPS5wceGt-33" value="" style="rounded=0;whiteSpace=wrap;html=1;" vertex="1" parent="1">
          <mxGeometry x="560" y="490" width="240" height="70" as="geometry" />
        </mxCell>
        <mxCell id="FTt_NVyZ7FaaPS5wceGt-34" value="" style="shape=mxgraph.signs.tech.camera_1;html=1;pointerEvents=1;fillColor=#d5e8d4;strokeColor=#82b366;verticalLabelPosition=bottom;verticalAlign=top;align=center;" vertex="1" parent="1">
          <mxGeometry x="570" y="510" width="58" height="44" as="geometry" />
        </mxCell>
        <mxCell id="FTt_NVyZ7FaaPS5wceGt-35" value="" style="shape=mxgraph.signs.tech.camera_1;html=1;pointerEvents=1;fillColor=#ffe6cc;strokeColor=#d79b00;verticalLabelPosition=bottom;verticalAlign=top;align=center;" vertex="1" parent="1">
          <mxGeometry x="640" y="510" width="68" height="44" as="geometry" />
        </mxCell>
        <mxCell id="FTt_NVyZ7FaaPS5wceGt-36" value="" style="shape=mxgraph.signs.tech.camera_1;html=1;pointerEvents=1;verticalLabelPosition=bottom;verticalAlign=top;align=center;fillColor=#d5e8d4;strokeColor=#82b366;" vertex="1" parent="1">
          <mxGeometry x="720" y="510" width="68" height="44" as="geometry" />
        </mxCell>
        <mxCell id="FTt_NVyZ7FaaPS5wceGt-37" value="x.104" style="text;html=1;align=center;verticalAlign=middle;whiteSpace=wrap;rounded=0;" vertex="1" parent="1">
          <mxGeometry x="560" y="490" width="60" height="30" as="geometry" />
        </mxCell>
        <mxCell id="FTt_NVyZ7FaaPS5wceGt-38" value="x.148" style="text;html=1;align=center;verticalAlign=middle;whiteSpace=wrap;rounded=0;" vertex="1" parent="1">
          <mxGeometry x="640" y="490" width="60" height="30" as="geometry" />
        </mxCell>
        <mxCell id="FTt_NVyZ7FaaPS5wceGt-39" value="x.160" style="text;html=1;align=center;verticalAlign=middle;whiteSpace=wrap;rounded=0;" vertex="1" parent="1">
          <mxGeometry x="720" y="490" width="60" height="30" as="geometry" />
        </mxCell>
        <mxCell id="FTt_NVyZ7FaaPS5wceGt-40" value="" style="endArrow=classic;html=1;rounded=0;entryX=0;entryY=0;entryDx=0;entryDy=0;exitX=1;exitY=1;exitDx=0;exitDy=0;" edge="1" parent="1" source="FTt_NVyZ7FaaPS5wceGt-15" target="FTt_NVyZ7FaaPS5wceGt-37">
          <mxGeometry width="50" height="50" relative="1" as="geometry">
            <mxPoint x="320" y="680" as="sourcePoint" />
            <mxPoint x="370" y="630" as="targetPoint" />
            <Array as="points">
              <mxPoint x="560" y="470" />
            </Array>
          </mxGeometry>
        </mxCell>
        <mxCell id="FTt_NVyZ7FaaPS5wceGt-41" value="&lt;div style=&quot;color: #cccccc;background-color: #1f1f1f;font-family: &#39;Droid Sans Mono&#39;, &#39;monospace&#39;, monospace;font-weight: normal;font-size: 14px;line-height: 19px;white-space: pre;&quot;&gt;&lt;div&gt;&lt;span style=&quot;color: #ce9178;&quot;&gt;get_cameras_that_are_not_in_network&lt;/span&gt;&lt;/div&gt;&lt;/div&gt;" style="endArrow=classic;html=1;rounded=0;exitX=0;exitY=1;exitDx=0;exitDy=0;entryX=1;entryY=0.25;entryDx=0;entryDy=0;" edge="1" parent="1" source="FTt_NVyZ7FaaPS5wceGt-33" target="FTt_NVyZ7FaaPS5wceGt-24">
          <mxGeometry x="-0.697" width="50" height="50" relative="1" as="geometry">
            <mxPoint x="510" y="690" as="sourcePoint" />
            <mxPoint x="560" y="640" as="targetPoint" />
            <Array as="points">
              <mxPoint x="560" y="638" />
            </Array>
            <mxPoint as="offset" />
          </mxGeometry>
        </mxCell>
        <mxCell id="FTt_NVyZ7FaaPS5wceGt-42" value="" style="endArrow=classic;html=1;rounded=0;exitX=1;exitY=0.5;exitDx=0;exitDy=0;" edge="1" parent="1" source="FTt_NVyZ7FaaPS5wceGt-33">
          <mxGeometry width="50" height="50" relative="1" as="geometry">
            <mxPoint x="820" y="550" as="sourcePoint" />
            <mxPoint x="860" y="525" as="targetPoint" />
          </mxGeometry>
        </mxCell>
        <mxCell id="FTt_NVyZ7FaaPS5wceGt-43" value="" style="rounded=0;whiteSpace=wrap;html=1;" vertex="1" parent="1">
          <mxGeometry x="860" y="470" width="90" height="84" as="geometry" />
        </mxCell>
        <mxCell id="FTt_NVyZ7FaaPS5wceGt-44" value="" style="html=1;verticalLabelPosition=bottom;align=center;labelBackgroundColor=#ffffff;verticalAlign=top;strokeWidth=2;strokeColor=#b85450;shadow=0;dashed=0;shape=mxgraph.ios7.icons.trashcan;fillColor=#f8cecc;" vertex="1" parent="1">
          <mxGeometry x="940" y="460" width="24" height="30" as="geometry" />
        </mxCell>
        <mxCell id="FTt_NVyZ7FaaPS5wceGt-45" value="" style="shape=mxgraph.signs.tech.camera_1;html=1;pointerEvents=1;fillColor=#f8cecc;strokeColor=#b85450;verticalLabelPosition=bottom;verticalAlign=top;align=center;" vertex="1" parent="1">
          <mxGeometry x="871" y="500" width="68" height="44" as="geometry" />
        </mxCell>
        <mxCell id="FTt_NVyZ7FaaPS5wceGt-46" value="x.115" style="text;html=1;align=center;verticalAlign=middle;whiteSpace=wrap;rounded=0;" vertex="1" parent="1">
          <mxGeometry x="870" y="470" width="60" height="30" as="geometry" />
        </mxCell>
      </root>
    </mxGraphModel>
  </diagram>
</mxfile>
